<?xml version="1.0" encoding="UTF-8" standalone="no"?>
<svg
   xmlns:dc="http://purl.org/dc/elements/1.1/"
   xmlns:cc="http://creativecommons.org/ns#"
   xmlns:rdf="http://www.w3.org/1999/02/22-rdf-syntax-ns#"
   xmlns:svg="http://www.w3.org/2000/svg"
   xmlns="http://www.w3.org/2000/svg"
   xmlns:sodipodi="http://sodipodi.sourceforge.net/DTD/sodipodi-0.dtd"
   xmlns:inkscape="http://www.inkscape.org/namespaces/inkscape"
   inkscape:version="1.0 (4035a4fb49, 2020-05-01)"
   sodipodi:docname="logo_LOSA.svg"
   id="svg64"
   style="fill-rule:evenodd;clip-rule:evenodd;stroke-linejoin:round;stroke-miterlimit:2;"
   xml:space="preserve"
   version="1.1"
   viewBox="0 0 800 350"
   height="100%"
   width="100%"><metadata
   id="metadata68"><rdf:RDF><cc:Work
       rdf:about=""><dc:format>image/svg+xml</dc:format><dc:type
         rdf:resource="http://purl.org/dc/dcmitype/StillImage" /></cc:Work></rdf:RDF></metadata><sodipodi:namedview
   inkscape:current-layer="g17"
   inkscape:window-maximized="1"
   inkscape:window-y="-8"
   inkscape:window-x="-8"
   inkscape:cy="211.22605"
   inkscape:cx="485.28777"
   inkscape:zoom="2.8875"
   showgrid="false"
   id="namedview66"
   inkscape:window-height="705"
   inkscape:window-width="1366"
   inkscape:pageshadow="2"
   inkscape:pageopacity="0"
   guidetolerance="10"
   gridtolerance="10"
   objecttolerance="10"
   borderopacity="1"
   bordercolor="#666666"
   pagecolor="#ffffff" />
    <g
   transform="matrix(1.15355,0,0,1.15355,49.792587,290.37096)"
   id="g17"
   clip-path="url(#_clip1)">
                <text
   id="text5"
   style="font-size:221.542px;font-family:ArialMT, Arial, sans-serif"
   y="0"
   x="0">LOSA</text>
                <g
   id="g15"
   transform="translate(-101.94,-320.931)">
                    <g
   id="g9"
   transform="matrix(0.866891,0,0,0.866891,58.7754,-18.3744)">
                        <path
   id="path7"
   style="fill:url(#_Linear2)"
   d="M 33.063,161.643 37.02,401.75 126.299,425.828 684.406,153.12 Z" />
                    </g>
                    <g
   id="g13"
   transform="matrix(0.866891,0,0,0.866891,58.7754,-18.3744)">
                        <path
   id="path11"
   style="fill:url(#_Linear3)"
   d="M 684.406,153.12 126.299,425.828 762.24,401.75 785.136,147.487 Z" />
                    </g>
                </g>
            </g><rect
   id="rect21"
   style="fill:url(#_Linear4);stroke-width:5.55935"
   height="36.672184"
   width="663.47925"
   y="56.509308"
   x="68.493423" /><g
   transform="matrix(26.00044,0,0,1.1886871,-12859.055,-252.71577)"
   id="g30"
   clip-path="url(#_clip5)">
                <g
   id="g28"
   transform="matrix(0.038461,0,0,0.841268,494.57,127.604)">
                    <path
   id="path26"
   style="fill:url(#_Linear6)"
   d="M 684.406,153.12 126.299,425.828 762.24,401.75 785.136,147.487 Z" />
                </g>
            </g><text
   id="text34"
   style="font-weight:700;font-size:31.0807px;font-family:Arial-BoldMT, Arial, sans-serif;fill:#ffffff;stroke-width:0.609557"
   y="85.969101"
   x="73.037773">PROJECT</text>
    <defs
   id="defs62">
        <linearGradient
   gradientTransform="matrix(-63.9536,-136.354,136.354,-63.9536,335.69,289.474)"
   gradientUnits="userSpaceOnUse"
   y2="0"
   x2="1"
   y1="0"
   x1="0"
   id="_Linear2"><stop
     id="stop40"
     style="stop-color:rgb(0,168,255);stop-opacity:1"
     offset="0" /><stop
     id="stop42"
     style="stop-color:rgb(0,116,176);stop-opacity:1"
     offset="0.47" /><stop
     id="stop44"
     style="stop-color:rgb(0,101,153);stop-opacity:1"
     offset="1" /></linearGradient>
        <linearGradient
   gradientTransform="matrix(114.662,122.568,-122.568,114.662,594.544,263.832)"
   gradientUnits="userSpaceOnUse"
   y2="0"
   x2="1"
   y1="0"
   x1="0"
   id="_Linear3"><stop
     id="stop47"
     style="stop-color:rgb(170,0,0);stop-opacity:1"
     offset="0" /><stop
     id="stop49"
     style="stop-color:rgb(85,0,0);stop-opacity:1"
     offset="1" /></linearGradient>
        <linearGradient
   gradientTransform="matrix(-463.40844,0,0,-2.3773742e-6,531.89961,74.844791)"
   gradientUnits="userSpaceOnUse"
   y2="0"
   x2="1"
   y1="0"
   x1="0"
   id="_Linear4"><stop
     id="stop52"
     style="stop-color:rgb(0,168,255);stop-opacity:1"
     offset="0" /><stop
     id="stop54"
     style="stop-color:rgb(0,101,153);stop-opacity:1"
     offset="1" /></linearGradient>
        <linearGradient
   gradientTransform="matrix(114.662,122.568,-122.568,114.662,594.544,263.832)"
   gradientUnits="userSpaceOnUse"
   y2="0"
   x2="1"
   y1="0"
   x1="0"
   id="_Linear6"><stop
     id="stop57"
     style="stop-color:rgb(170,0,0);stop-opacity:1"
     offset="0" /><stop
     id="stop59"
     style="stop-color:rgb(85,0,0);stop-opacity:1"
     offset="1" /></linearGradient>
    
        
        
        
    
            <clipPath
   id="_clip1">
                <path
   id="path2"
   clip-rule="nonzero"
   d="m 16.226,0 v -158.584 h 20.986 v 139.87 h 78.102 V 0 Z M 133.92,-77.237 c 0,-26.322 7.068,-46.93 21.203,-61.822 14.135,-14.892 32.38,-22.338 54.736,-22.338 14.64,0 27.837,3.498 39.592,10.493 11.755,6.995 20.716,16.749 26.882,29.261 6.166,12.513 9.248,26.702 9.248,42.567 0,16.082 -3.245,30.469 -9.735,43.162 -6.491,12.692 -15.686,22.302 -27.585,28.829 -11.899,6.526 -24.736,9.789 -38.51,9.789 -14.928,0 -28.27,-3.605 -40.025,-10.817 -11.755,-7.212 -20.661,-17.056 -26.719,-29.532 -6.058,-12.476 -9.087,-25.673 -9.087,-39.592 z m 21.635,0.325 c 0,19.111 5.139,34.165 15.415,45.163 10.277,10.997 23.168,16.496 38.673,16.496 15.793,0 28.792,-5.553 38.997,-16.659 10.204,-11.106 15.307,-26.863 15.307,-47.272 0,-12.909 -2.182,-24.177 -6.545,-33.805 -4.363,-9.627 -10.745,-17.091 -19.147,-22.392 -8.402,-5.3 -17.831,-7.951 -28.288,-7.951 -14.856,0 -27.638,5.103 -38.348,15.307 -10.709,10.205 -16.064,27.242 -16.064,51.113 z m 149.931,25.962 19.796,-1.731 c 0.937,7.933 3.119,14.441 6.544,19.525 3.426,5.085 8.744,9.195 15.956,12.332 7.212,3.137 15.325,4.706 24.339,4.706 8.005,0 15.073,-1.19 21.203,-3.57 6.129,-2.38 10.691,-5.643 13.684,-9.79 2.993,-4.146 4.489,-8.672 4.489,-13.576 0,-4.976 -1.442,-9.321 -4.327,-13.035 -2.885,-3.714 -7.644,-6.833 -14.279,-9.357 -4.255,-1.658 -13.666,-4.237 -28.234,-7.734 -14.567,-3.498 -24.772,-6.797 -30.613,-9.898 -7.572,-3.967 -13.216,-8.889 -16.93,-14.766 -3.714,-5.878 -5.571,-12.458 -5.571,-19.742 0,-8.005 2.272,-15.487 6.815,-22.446 4.544,-6.96 11.179,-12.242 19.905,-15.848 8.726,-3.606 18.425,-5.409 29.099,-5.409 11.755,0 22.121,1.893 31.1,5.68 8.978,3.786 15.884,9.357 20.715,16.713 4.832,7.355 7.428,15.685 7.789,24.988 l -20.121,1.514 c -1.081,-10.024 -4.741,-17.596 -10.979,-22.716 -6.238,-5.121 -15.451,-7.681 -27.639,-7.681 -12.692,0 -21.941,2.326 -27.747,6.978 -5.805,4.651 -8.708,10.258 -8.708,16.821 0,5.697 2.055,10.384 6.166,14.062 4.039,3.678 14.586,7.446 31.641,11.305 17.056,3.858 28.757,7.229 35.103,10.114 9.231,4.255 16.046,9.646 20.445,16.172 4.399,6.527 6.599,14.045 6.599,22.555 0,8.437 -2.416,16.388 -7.248,23.852 -4.832,7.464 -11.773,13.27 -20.824,17.416 -9.05,4.147 -19.237,6.22 -30.559,6.22 -14.351,0 -26.377,-2.091 -36.076,-6.274 -9.7,-4.183 -17.308,-10.475 -22.825,-18.876 -5.517,-8.402 -8.42,-17.903 -8.708,-28.504 z M 442.976,0 503.878,-158.584 h 22.609 L 591.392,0 H 567.485 L 548.987,-48.03 H 482.676 L 465.26,0 Z m 45.758,-65.121 h 53.763 l -16.551,-43.919 c -5.048,-13.342 -8.798,-24.303 -11.25,-32.885 -2.02,10.168 -4.868,20.264 -8.546,30.289 z" />
            </clipPath>
            
        
            
            <clipPath
   id="_clip5">
                <rect
   id="rect23"
   height="30.851"
   width="25.518"
   y="260.14001"
   x="497.20499" />
            </clipPath>
            
        
            
        </defs>
</svg>
