<?xml version="1.0" encoding="UTF-8" standalone="no"?>
<!DOCTYPE svg PUBLIC "-//W3C//DTD SVG 1.1//EN" "http://www.w3.org/Graphics/SVG/1.1/DTD/svg11.dtd">
<svg width="100%" height="100%" viewBox="0 0 800 350" version="1.1" xmlns="http://www.w3.org/2000/svg" xmlns:xlink="http://www.w3.org/1999/xlink" xml:space="preserve" xmlns:serif="http://www.serif.com/" style="fill-rule:evenodd;clip-rule:evenodd;stroke-linejoin:round;stroke-miterlimit:2;">
    <g transform="matrix(1.15355,0,0,1.15355,-67.8003,-103.804)">
        <g transform="matrix(0.866889,0,0,0.866889,58.7753,89.9866)">
            <rect x="0" y="0" width="800" height="350"/>
        </g>
        <g transform="matrix(1,0,0,1,101.94,341.706)">
            <g>
                <clipPath id="_clip1">
                    <path d="M16.226,0L16.226,-158.584L37.212,-158.584L37.212,-18.714L115.314,-18.714L115.314,0L16.226,0ZM133.92,-77.237C133.92,-103.559 140.988,-124.167 155.123,-139.059C169.258,-153.951 187.503,-161.397 209.859,-161.397C224.499,-161.397 237.696,-157.899 249.451,-150.904C261.206,-143.909 270.167,-134.155 276.333,-121.643C282.499,-109.13 285.581,-94.941 285.581,-79.076C285.581,-62.994 282.336,-48.607 275.846,-35.914C269.355,-23.222 260.16,-13.612 248.261,-7.085C236.362,-0.559 223.525,2.704 209.751,2.704C194.823,2.704 181.481,-0.901 169.726,-8.113C157.971,-15.325 149.065,-25.169 143.007,-37.645C136.949,-50.121 133.92,-63.318 133.92,-77.237ZM155.555,-76.912C155.555,-57.801 160.694,-42.747 170.97,-31.749C181.247,-20.752 194.138,-15.253 209.643,-15.253C225.436,-15.253 238.435,-20.806 248.64,-31.912C258.844,-43.018 263.947,-58.775 263.947,-79.184C263.947,-92.093 261.765,-103.361 257.402,-112.989C253.039,-122.616 246.657,-130.08 238.255,-135.381C229.853,-140.681 220.424,-143.332 209.967,-143.332C195.111,-143.332 182.329,-138.229 171.619,-128.025C160.91,-117.82 155.555,-100.783 155.555,-76.912ZM305.486,-50.95L325.282,-52.681C326.219,-44.748 328.401,-38.24 331.826,-33.156C335.252,-28.071 340.57,-23.961 347.782,-20.824C354.994,-17.687 363.107,-16.118 372.121,-16.118C380.126,-16.118 387.194,-17.308 393.324,-19.688C399.453,-22.068 404.015,-25.331 407.008,-29.478C410.001,-33.624 411.497,-38.15 411.497,-43.054C411.497,-48.03 410.055,-52.375 407.17,-56.089C404.285,-59.803 399.526,-62.922 392.891,-65.446C388.636,-67.104 379.225,-69.683 364.657,-73.18C350.09,-76.678 339.885,-79.977 334.044,-83.078C326.472,-87.045 320.828,-91.967 317.114,-97.844C313.4,-103.722 311.543,-110.302 311.543,-117.586C311.543,-125.591 313.815,-133.073 318.358,-140.032C322.902,-146.992 329.537,-152.274 338.263,-155.88C346.989,-159.486 356.688,-161.289 367.362,-161.289C379.117,-161.289 389.483,-159.396 398.462,-155.609C407.44,-151.823 414.346,-146.252 419.177,-138.896C424.009,-131.541 426.605,-123.211 426.966,-113.908L406.845,-112.394C405.764,-122.418 402.104,-129.99 395.866,-135.11C389.628,-140.231 380.415,-142.791 368.227,-142.791C355.535,-142.791 346.286,-140.465 340.48,-135.813C334.675,-131.162 331.772,-125.555 331.772,-118.992C331.772,-113.295 333.827,-108.608 337.938,-104.93C341.977,-101.252 352.524,-97.484 369.579,-93.625C386.635,-89.767 398.336,-86.396 404.682,-83.511C413.913,-79.256 420.728,-73.865 425.127,-67.339C429.526,-60.812 431.726,-53.294 431.726,-44.784C431.726,-36.347 429.31,-28.396 424.478,-20.932C419.646,-13.468 412.705,-7.662 403.654,-3.516C394.604,0.631 384.417,2.704 373.095,2.704C358.744,2.704 346.718,0.613 337.019,-3.57C327.319,-7.753 319.711,-14.045 314.194,-22.446C308.677,-30.848 305.774,-40.349 305.486,-50.95ZM442.976,0L503.878,-158.584L526.487,-158.584L591.392,0L567.485,0L548.987,-48.03L482.676,-48.03L465.26,0L442.976,0ZM488.734,-65.121L542.497,-65.121L525.946,-109.04C520.898,-122.382 517.148,-133.343 514.696,-141.925C512.676,-131.757 509.828,-121.661 506.15,-111.636L488.734,-65.121Z"/>
                </clipPath>
                <g clip-path="url(#_clip1)">
                    <text x="0px" y="0px" style="font-family:'ArialMT', 'Arial', sans-serif;font-size:221.542px;">LOSA</text>
                    <g transform="matrix(1,0,0,1,-101.94,-320.931)">
                        <g transform="matrix(0.866891,0,0,0.866891,58.7754,-18.3744)">
                            <path d="M33.063,161.643L37.02,401.75L126.299,425.828L684.406,153.12L33.063,161.643Z" style="fill:url(#_Linear2);"/>
                        </g>
                        <g transform="matrix(0.866891,0,0,0.866891,58.7754,-18.3744)">
                            <path d="M684.406,153.12L126.299,425.828L762.24,401.75L785.136,147.487L684.406,153.12Z" style="fill:url(#_Linear3);"/>
                        </g>
                    </g>
                </g>
            </g>
        </g>
        <g transform="matrix(22.5395,0,0,1.03046,-11088.6,-129.09)">
            <rect x="497.205" y="260.14" width="25.518" height="30.851" style="fill:url(#_Linear4);"/>
        </g>
        <g transform="matrix(0.866889,0,0,0.866889,58.7753,89.9866)">
            <path d="M675.339,56.509L600.288,93.181L731.973,93.181L731.973,56.509L675.339,56.509Z" style="fill:url(#_Linear5);"/>
        </g>
        <g transform="matrix(0.528418,0,0,0.528418,122.091,164.512)">
            <text x="0px" y="0px" style="font-family:'Arial-BoldMT', 'Arial', sans-serif;font-weight:700;font-size:50.989px;fill:white;">PROJECT</text>
        </g>
    </g>
    <defs>
        <linearGradient id="_Linear2" x1="0" y1="0" x2="1" y2="0" gradientUnits="userSpaceOnUse" gradientTransform="matrix(-63.9536,-136.354,136.354,-63.9536,335.69,289.474)"><stop offset="0" style="stop-color:rgb(0,168,255);stop-opacity:1"/><stop offset="0.47" style="stop-color:rgb(0,116,176);stop-opacity:1"/><stop offset="1" style="stop-color:rgb(0,101,153);stop-opacity:1"/></linearGradient>
        <linearGradient id="_Linear3" x1="0" y1="0" x2="1" y2="0" gradientUnits="userSpaceOnUse" gradientTransform="matrix(176.127,161.995,-161.995,176.127,594.544,263.832)"><stop offset="0" style="stop-color:rgb(170,0,0);stop-opacity:1"/><stop offset="1" style="stop-color:rgb(99,27,27);stop-opacity:1"/></linearGradient>
        <linearGradient id="_Linear4" x1="0" y1="0" x2="1" y2="0" gradientUnits="userSpaceOnUse" gradientTransform="matrix(-17.8231,2.1827e-15,-2.1827e-15,-17.8231,515.028,275.565)"><stop offset="0" style="stop-color:rgb(0,168,255);stop-opacity:1"/><stop offset="1" style="stop-color:rgb(0,101,153);stop-opacity:1"/></linearGradient>
        <linearGradient id="_Linear5" x1="0" y1="0" x2="1" y2="0" gradientUnits="userSpaceOnUse" gradientTransform="matrix(64.7222,32.3534,-8.76529,17.5348,693.879,71.8381)"><stop offset="0" style="stop-color:rgb(170,0,0);stop-opacity:1"/><stop offset="1" style="stop-color:rgb(99,27,27);stop-opacity:1"/></linearGradient>
    </defs>
</svg>
