<?xml version="1.0" encoding="UTF-8" standalone="no"?>
<svg
   xmlns:dc="http://purl.org/dc/elements/1.1/"
   xmlns:cc="http://creativecommons.org/ns#"
   xmlns:rdf="http://www.w3.org/1999/02/22-rdf-syntax-ns#"
   xmlns:svg="http://www.w3.org/2000/svg"
   xmlns="http://www.w3.org/2000/svg"
   xmlns:xlink="http://www.w3.org/1999/xlink"
   xmlns:sodipodi="http://sodipodi.sourceforge.net/DTD/sodipodi-0.dtd"
   xmlns:inkscape="http://www.inkscape.org/namespaces/inkscape"
   sodipodi:docname="join_the_community.svg"
   inkscape:version="1.0 (4035a4fb49, 2020-05-01)"
   id="svg977"
   version="1.1"
   viewBox="0 0 83.291916 12.07377"
   height="12.07377mm"
   width="83.291916mm">
  <defs
     id="defs971">
    <linearGradient
       inkscape:collect="always"
       xlink:href="#linearGradient881"
       id="linearGradient931"
       gradientUnits="userSpaceOnUse"
       gradientTransform="matrix(0.86229288,0,0,0.49300327,-266.45395,-5.6870538)"
       x1="124.81487"
       y1="-37.952274"
       x2="129.62572"
       y2="-157.15448" />
    <linearGradient
       id="linearGradient881"
       inkscape:collect="always">
      <stop
         id="stop877"
         offset="0"
         style="stop-color:#005078;stop-opacity:1" />
      <stop
         id="stop879"
         offset="1"
         style="stop-color:#540000;stop-opacity:1" />
    </linearGradient>
    <rect
       id="rect929"
       height="43.798744"
       width="110.76099"
       y="126.68576"
       x="49.444862" />
    <rect
       id="rect964"
       height="43.798744"
       width="110.76099"
       y="126.68576"
       x="49.444862" />
  </defs>
  <sodipodi:namedview
     inkscape:window-maximized="0"
     inkscape:window-y="0"
     inkscape:window-x="0"
     inkscape:window-height="728"
     inkscape:window-width="1350"
     showgrid="false"
     inkscape:document-rotation="0"
     inkscape:current-layer="layer1"
     inkscape:document-units="mm"
     inkscape:cy="24.089275"
     inkscape:cx="145.24642"
     inkscape:zoom="0.5"
     inkscape:pageshadow="2"
     inkscape:pageopacity="0.0"
     borderopacity="1.0"
     bordercolor="#666666"
     pagecolor="#ffffff"
     id="base">
    <inkscape:grid
       originy="-151.95717"
       originx="-15.80642"
       id="grid1623"
       type="xygrid" />
  </sodipodi:namedview>
  <metadata
     id="metadata974">
    <rdf:RDF>
      <cc:Work
         rdf:about="">
        <dc:format>image/svg+xml</dc:format>
        <dc:type
           rdf:resource="http://purl.org/dc/dcmitype/StillImage" />
        <dc:title></dc:title>
      </cc:Work>
    </rdf:RDF>
  </metadata>
  <g
     transform="translate(-15.806419,-151.95716)"
     id="layer1"
     inkscape:groupmode="layer"
     inkscape:label="Layer 1">
    <path
       d="m -164.03093,-99.098335 h 12.07377 v 83.291916 h -12.07377 z"
       transform="matrix(0,-1,-1,0,0,0)"
       style="fill:url(#linearGradient931);fill-opacity:1;stroke-width:1.09853;stroke-linecap:round;stroke-linejoin:round;paint-order:markers stroke fill"
       id="rect919" />
    <path
       transform="scale(0.26458333)"
       d="m 90.962891,587.5957 c -2.757398,0 -4.923486,0.79767 -6.498047,2.39258 -1.566876,1.59489 -2.34961,3.79699 -2.34961,6.60742 0,2.8027 0.782734,5.00277 2.34961,6.59766 1.574561,1.59491 3.740649,2.39258 6.498047,2.39258 2.765079,0 4.93117,-0.79767 6.498047,-2.39258 1.566878,-1.59489 2.349609,-3.79496 2.349609,-6.59766 0,-2.81043 -0.782731,-5.01253 -2.349609,-6.60742 -1.566877,-1.59491 -3.732968,-2.39258 -6.498047,-2.39258 z m 117.482419,0 c -2.86494,0 -5.13614,0.8096 -6.81054,2.42774 -1.67441,1.61038 -2.51172,3.80053 -2.51172,6.57226 0,2.764 0.83731,4.95611 2.51172,6.57422 1.6744,1.61038 3.9456,2.41602 6.81054,2.41602 0.96008,0 1.88038,-0.10923 2.76367,-0.32617 0.8833,-0.2168 1.73272,-0.53905 2.54688,-0.96485 v -3.58789 c -0.82183,0.56519 -1.63283,0.98091 -2.43164,1.24414 -0.79879,0.26323 -1.64015,0.39453 -2.52344,0.39453 -1.58223,0 -2.82609,-0.51124 -3.73242,-1.5332 -0.90633,-1.02198 -1.35938,-2.42832 -1.35938,-4.2168 0,-1.79618 0.45305,-3.2046 1.35938,-4.22656 0.90633,-1.02198 2.15019,-1.5332 3.73242,-1.5332 0.88329,0 1.72465,0.1313 2.52344,0.39453 0.79881,0.26326 1.60981,0.67897 2.43164,1.24414 v -3.58984 c -0.81416,-0.42568 -1.66358,-0.74595 -2.54688,-0.96289 -0.88329,-0.21695 -1.80359,-0.32618 -2.76367,-0.32618 z m 16.85547,0 c -2.7574,0 -4.92348,0.79767 -6.49805,2.39258 -1.56688,1.59489 -2.35156,3.79699 -2.35156,6.60742 0,2.8027 0.78468,5.00277 2.35156,6.59766 1.57457,1.59491 3.74065,2.39258 6.49805,2.39258 2.76507,0 4.92923,-0.79767 6.4961,-2.39258 1.56688,-1.59489 2.35156,-3.79496 2.35156,-6.59766 0,-2.81043 -0.78468,-5.01253 -2.35156,-6.60742 -1.56687,-1.59491 -3.73103,-2.39258 -6.4961,-2.39258 z m -150.998046,0.31446 v 15.65429 c 0,1.00649 -0.23668,1.76838 -0.71289,2.28711 -0.468526,0.51873 -1.164245,0.7793 -2.085938,0.7793 H 70.8125 v 3.37891 h 0.898438 c 2.357996,0 4.117545,-0.53512 5.277343,-1.60352 1.167479,-1.06845 1.75,-2.68172 1.75,-4.8418 v -15.65429 z m 28.849606,0 v 17.33789 h 4.43555 v -17.33789 z m 8.80274,0 v 17.33789 h 4.20508 v -11.89258 l 6.25586,11.89258 h 4.95312 v -17.33789 h -4.20508 v 11.89062 l -6.25586,-11.89062 z m 25.92187,0 v 3.3789 h 5.71485 v 13.95899 h 4.43554 v -13.95899 h 5.70313 v -3.3789 z m 18.13477,0 v 17.33789 h 4.43555 v -7.35157 h 6.54492 v 7.35157 h 4.43554 v -17.33789 h -4.43554 v 6.60742 h -6.54492 v -6.60742 z m 19.76953,0 v 17.33789 h 12.22461 v -3.37891 h -7.78906 v -3.97266 h 7.08593 v -3.3789 h -7.08593 v -3.22852 h 7.53515 v -3.3789 z m 61.70703,0 v 17.33789 h 4.20703 v -12.68164 l 3.96289,9.34961 h 2.81055 l 3.96289,-9.34961 v 12.68164 h 4.19336 v -17.33789 h -5.63281 l -3.93946,9.27929 -3.91796,-9.27929 z m 23.50391,0 v 17.33789 h 4.20508 v -12.68164 l 3.96289,9.34961 h 2.8125 l 3.96289,-9.34961 v 12.68164 h 4.19336 v -17.33789 h -5.63282 l -3.9414,9.27929 -3.91602,-9.27929 z m 23.5039,0 v 10.39257 c 0,2.45428 0.61079,4.28238 1.83203,5.48243 1.22123,1.20005 3.07991,1.80078 5.57618,1.80078 2.50393,0 4.36664,-0.60073 5.58789,-1.80078 1.22124,-1.20005 1.83203,-3.02815 1.83203,-5.48243 v -10.39257 h -4.4375 v 10.39257 c 0,1.43232 -0.23264,2.45877 -0.70117,3.07813 -0.46084,0.61165 -1.2213,0.91797 -2.28125,0.91797 -1.05226,0 -1.81272,-0.30632 -2.28125,-0.91797 -0.46084,-0.61936 -0.69141,-1.64581 -0.69141,-3.07813 v -10.39257 z m 19.16993,0 v 17.33789 h 4.20507 v -11.89258 l 6.25782,11.89258 h 4.95312 v -17.33789 h -4.20508 v 11.89062 l -6.25586,-11.89062 z m 19.77148,0 v 17.33789 h 4.43555 v -17.33789 z m 6.75195,0 v 3.3789 h 5.71289 v 13.95899 h 4.43555 v -13.95899 h 5.70313 v -3.20312 l 6.4414,9.85742 v 7.30469 h 4.43555 v -7.30469 l 6.55469,-10.0332 h -4.86133 l -3.91797,6.17773 -3.91602,-6.17773 h -4.73632 -0.11524 z m -239.226559,2.92578 c 1.359496,0 2.411214,0.50327 3.15625,1.50976 0.745035,1.00649 1.11914,2.42283 1.11914,4.25 0,1.81942 -0.374105,3.23372 -1.11914,4.24024 -0.745036,1.00646 -1.796754,1.50976 -3.15625,1.50976 -1.351816,0 -2.399496,-0.5033 -3.144532,-1.50976 -0.745035,-1.00652 -1.117187,-2.42082 -1.117187,-4.24024 0,-1.82717 0.372152,-3.24351 1.117187,-4.25 0.745036,-1.00649 1.792716,-1.50976 3.144532,-1.50976 z m 134.337889,0 c 1.3595,0 2.41124,0.50327 3.15625,1.50976 0.74504,1.00649 1.11719,2.42283 1.11719,4.25 0,1.81942 -0.37215,3.23372 -1.11719,4.24024 -0.74501,1.00646 -1.79675,1.50976 -3.15625,1.50976 -1.35182,0 -2.40144,-0.5033 -3.14648,-1.50976 -0.74504,-1.00652 -1.11719,-2.42082 -1.11719,-4.24024 0,-1.82717 0.37215,-3.24351 1.11719,-4.25 0.74504,-1.00649 1.79466,-1.50976 3.14648,-1.50976 z"
       style="font-style:normal;font-weight:bold;font-size:6.99166px;line-height:1.25;font-family:sans-serif;text-align:center;text-anchor:middle;white-space:pre;fill:#ffffff;fill-opacity:1;stroke:none;stroke-width:3.38826"
       id="path1573" />
  </g>
</svg>
